<?xml version="1.0" encoding="UTF-8"?>
<svg xmlns="http://www.w3.org/2000/svg" xmlns:xlink="http://www.w3.org/1999/xlink" width="810pt" height="809.999993pt" viewBox="0 0 810 809.999993" version="1.2">
<g id="surface1">
<path style=" stroke:none;fill-rule:nonzero;fill:rgb(36.859131%,9.01947%,92.158508%);fill-opacity:1;" d="M 404.695312 787.289062 C 302.546875 787.289062 206.363281 747.53125 134.183594 675.203125 C 61.855469 603.027344 22.097656 506.84375 22.097656 404.695312 C 22.097656 302.546875 61.855469 206.363281 134.183594 134.183594 C 206.363281 61.855469 302.546875 22.097656 404.695312 22.097656 C 506.84375 22.097656 603.027344 61.855469 675.203125 134.183594 C 747.53125 206.515625 787.289062 302.546875 787.289062 404.695312 C 787.289062 506.84375 747.53125 603.027344 675.203125 675.203125 C 603.027344 747.53125 506.84375 787.289062 404.695312 787.289062 Z M 404.695312 45.035156 C 308.664062 45.035156 218.289062 82.5 150.394531 150.394531 C 82.5 218.289062 45.035156 308.664062 45.035156 404.695312 C 45.035156 500.726562 82.5 591.097656 150.394531 658.992188 C 218.289062 726.886719 308.664062 764.351562 404.695312 764.351562 C 500.726562 764.351562 591.097656 726.886719 658.992188 658.992188 C 726.886719 591.097656 764.351562 500.726562 764.351562 404.695312 C 764.351562 308.664062 726.886719 218.289062 658.992188 150.394531 C 591.097656 82.5 500.726562 45.035156 404.695312 45.035156 Z M 404.695312 45.035156 "/>
<path style=" stroke:none;fill-rule:nonzero;fill:rgb(98.81897%,98.81897%,99.21875%);fill-opacity:1;" d="M 665.878906 665.878906 C 521.789062 809.972656 288.175781 809.972656 144.082031 665.878906 C -0.0078125 521.789062 -0.0078125 288.175781 144.082031 144.082031 C 288.175781 -0.0078125 521.789062 -0.0078125 665.878906 144.082031 C 809.972656 288.175781 809.972656 521.789062 665.878906 665.878906 "/>
<path style=" stroke:none;fill-rule:nonzero;fill:rgb(98.81897%,98.81897%,99.21875%);fill-opacity:1;" d="M 665.878906 144.082031 C 665.679688 143.882812 665.464844 143.679688 665.253906 143.476562 L 143.476562 665.253906 C 143.679688 665.464844 143.882812 665.679688 144.082031 665.878906 C 288.175781 809.972656 521.789062 809.972656 665.878906 665.878906 C 809.972656 521.789062 809.972656 288.175781 665.878906 144.082031 "/>
<path style=" stroke:none;fill-rule:nonzero;fill:rgb(54.899597%,32.159424%,100%);fill-opacity:1;" d="M 287.546875 268.476562 C 263.328125 268.476562 240.730469 281.464844 228.574219 302.367188 C 209.675781 334.847656 220.734375 376.636719 253.210938 395.535156 L 488.234375 532.242188 C 498.636719 538.292969 510.460938 541.488281 522.421875 541.488281 C 522.421875 541.488281 522.429688 541.488281 522.429688 541.488281 C 546.640625 541.488281 569.234375 528.503906 581.398438 507.597656 C 600.289062 475.125 589.234375 433.328125 556.753906 414.4375 L 321.734375 277.730469 C 311.328125 271.675781 299.507812 268.476562 287.546875 268.476562 Z M 522.429688 560.84375 C 522.421875 560.84375 522.429688 560.84375 522.421875 560.84375 C 507.046875 560.84375 491.859375 556.738281 478.503906 548.972656 L 243.476562 412.265625 C 201.777344 388.003906 187.585938 334.34375 211.84375 292.640625 C 227.449219 265.792969 256.460938 249.117188 287.546875 249.117188 C 302.917969 249.117188 318.109375 253.226562 331.46875 261 L 566.488281 397.707031 C 608.191406 421.960938 622.386719 475.625 598.128906 517.332031 C 582.515625 544.167969 553.503906 560.84375 522.429688 560.84375 "/>
<path style=" stroke:none;fill-rule:nonzero;fill:rgb(54.899597%,32.159424%,100%);fill-opacity:1;" d="M 404.984375 200.902344 C 367.414062 200.902344 336.839844 231.460938 336.839844 269.039062 L 336.839844 540.929688 C 336.839844 578.503906 367.414062 609.070312 404.984375 609.070312 C 442.554688 609.070312 473.125 578.503906 473.125 540.929688 L 473.125 269.039062 C 473.125 231.460938 442.554688 200.902344 404.984375 200.902344 Z M 404.984375 628.425781 C 356.734375 628.425781 317.492188 589.175781 317.492188 540.929688 L 317.492188 269.039062 C 317.492188 220.789062 356.734375 181.542969 404.984375 181.542969 C 453.226562 181.542969 492.480469 220.789062 492.480469 269.039062 L 492.480469 540.929688 C 492.480469 589.175781 453.226562 628.425781 404.984375 628.425781 "/>
<path style=" stroke:none;fill-rule:nonzero;fill:rgb(36.859131%,9.01947%,92.158508%);fill-opacity:1;" d="M 404.984375 200.902344 C 367.414062 200.902344 336.839844 231.460938 336.839844 269.039062 L 336.839844 540.929688 C 336.839844 578.503906 367.414062 609.070312 404.984375 609.070312 C 442.554688 609.070312 473.125 578.503906 473.125 540.929688 L 473.125 269.039062 C 473.125 231.460938 442.554688 200.902344 404.984375 200.902344 Z M 404.984375 628.425781 C 356.734375 628.425781 317.492188 589.175781 317.492188 540.929688 L 317.492188 269.039062 C 317.492188 220.789062 356.734375 181.542969 404.984375 181.542969 C 453.226562 181.542969 492.480469 220.789062 492.480469 269.039062 L 492.480469 540.929688 C 492.480469 589.175781 453.226562 628.425781 404.984375 628.425781 "/>
<path style=" stroke:none;fill-rule:nonzero;fill:rgb(54.899597%,32.159424%,100%);fill-opacity:1;" d="M 522.421875 268.476562 C 510.460938 268.476562 498.636719 271.675781 488.234375 277.730469 L 253.210938 414.4375 C 220.734375 433.328125 209.675781 475.125 228.574219 507.597656 C 240.730469 528.503906 263.328125 541.488281 287.546875 541.488281 C 299.507812 541.488281 311.328125 538.292969 321.734375 532.242188 L 556.753906 395.535156 C 589.234375 376.636719 600.289062 334.847656 581.398438 302.367188 C 569.234375 281.464844 546.636719 268.476562 522.421875 268.476562 Z M 287.546875 560.84375 C 256.460938 560.84375 227.449219 544.167969 211.84375 517.332031 C 187.585938 475.625 201.777344 421.960938 243.476562 397.707031 L 478.503906 261 C 491.859375 253.226562 507.046875 249.117188 522.421875 249.117188 C 553.503906 249.117188 582.515625 265.792969 598.128906 292.640625 C 622.386719 334.339844 608.191406 388.003906 566.488281 412.265625 L 331.46875 548.972656 C 318.109375 556.742188 302.917969 560.84375 287.546875 560.84375 "/>
<path style=" stroke:none;fill-rule:nonzero;fill:rgb(54.899597%,32.159424%,100%);fill-opacity:1;" d="M 287.546875 268.476562 C 263.328125 268.476562 240.730469 281.464844 228.574219 302.367188 C 209.675781 334.847656 220.734375 376.636719 253.210938 395.535156 L 488.234375 532.242188 C 498.636719 538.292969 510.460938 541.488281 522.421875 541.488281 C 522.421875 541.488281 522.429688 541.488281 522.429688 541.488281 C 546.640625 541.488281 569.234375 528.503906 581.398438 507.597656 C 600.289062 475.125 589.234375 433.328125 556.753906 414.4375 L 321.734375 277.730469 C 311.328125 271.675781 299.507812 268.476562 287.546875 268.476562 Z M 522.429688 560.84375 C 522.421875 560.84375 522.429688 560.84375 522.421875 560.84375 C 507.046875 560.84375 491.859375 556.738281 478.503906 548.972656 L 243.476562 412.265625 C 201.777344 388.003906 187.585938 334.34375 211.84375 292.640625 C 227.449219 265.792969 256.460938 249.117188 287.546875 249.117188 C 302.917969 249.117188 318.109375 253.226562 331.46875 261 L 566.488281 397.707031 C 608.191406 421.960938 622.386719 475.625 598.128906 517.332031 C 582.515625 544.167969 553.503906 560.84375 522.429688 560.84375 "/>
<path style=" stroke:none;fill-rule:nonzero;fill:rgb(54.899597%,32.159424%,100%);fill-opacity:1;" d="M 404.984375 181.542969 L 404.984375 200.902344 C 442.554688 200.902344 473.125 231.460938 473.125 269.039062 L 473.125 540.929688 C 473.125 578.503906 442.554688 609.070312 404.984375 609.070312 L 404.984375 628.425781 C 453.226562 628.425781 492.480469 589.175781 492.480469 540.929688 L 492.480469 269.039062 C 492.480469 220.789062 453.226562 181.542969 404.984375 181.542969 "/>
<path style=" stroke:none;fill-rule:nonzero;fill:rgb(63.529968%,35.289001%,95.689392%);fill-opacity:1;" d="M 566.488281 397.707031 L 404.984375 303.765625 L 404.984375 326.15625 L 556.753906 414.4375 C 589.234375 433.328125 600.289062 475.125 581.398438 507.597656 C 569.234375 528.503906 546.640625 541.488281 522.429688 541.488281 C 522.429688 541.488281 522.421875 541.488281 522.421875 541.488281 C 510.460938 541.488281 498.636719 538.292969 488.234375 532.242188 L 404.984375 483.8125 L 404.984375 506.207031 L 478.503906 548.972656 C 491.859375 556.738281 507.046875 560.84375 522.421875 560.84375 C 522.429688 560.84375 522.421875 560.84375 522.429688 560.84375 C 553.503906 560.84375 582.515625 544.167969 598.128906 517.332031 C 622.386719 475.625 608.191406 421.960938 566.488281 397.707031 "/>
<path style=" stroke:none;fill-rule:nonzero;fill:rgb(63.529968%,35.289001%,95.689392%);fill-opacity:1;" d="M 522.421875 268.476562 C 510.460938 268.476562 498.636719 271.675781 488.234375 277.730469 L 253.210938 414.4375 C 220.734375 433.328125 209.675781 475.125 228.574219 507.597656 C 240.730469 528.503906 263.328125 541.488281 287.546875 541.488281 C 299.507812 541.488281 311.328125 538.292969 321.734375 532.242188 L 556.753906 395.535156 C 589.234375 376.636719 600.289062 334.847656 581.398438 302.367188 C 569.234375 281.464844 546.636719 268.476562 522.421875 268.476562 Z M 287.546875 560.84375 C 256.460938 560.84375 227.449219 544.167969 211.84375 517.332031 C 187.585938 475.625 201.777344 421.960938 243.476562 397.707031 L 478.503906 261 C 491.859375 253.226562 507.046875 249.117188 522.421875 249.117188 C 553.503906 249.117188 582.515625 265.792969 598.128906 292.640625 C 622.386719 334.339844 608.191406 388.003906 566.488281 412.265625 L 331.46875 548.972656 C 318.109375 556.742188 302.917969 560.84375 287.546875 560.84375 "/>
<path style=" stroke:none;fill-rule:nonzero;fill:rgb(54.899597%,32.159424%,100%);fill-opacity:1;" d="M 280.722656 411.535156 L 253.210938 395.535156 C 244.164062 390.265625 236.777344 383.226562 231.242188 375.097656 L 221.042969 375.097656 L 221.042969 393.570312 C 227.253906 400.832031 234.761719 407.191406 243.476562 412.265625 L 280.722656 433.925781 L 280.722656 411.535156 "/>
<path style=" stroke:none;fill-rule:nonzero;fill:rgb(36.859131%,9.01947%,92.158508%);fill-opacity:1;" d="M 522.421875 249.117188 C 507.046875 249.117188 491.859375 253.226562 478.503906 261 L 404.984375 303.765625 L 404.984375 326.15625 L 488.234375 277.730469 C 498.636719 271.675781 510.460938 268.476562 522.421875 268.476562 C 546.636719 268.476562 569.234375 281.464844 581.398438 302.367188 C 600.289062 334.847656 589.234375 376.636719 556.753906 395.535156 L 404.984375 483.8125 L 404.984375 506.207031 L 566.488281 412.265625 C 608.191406 388.003906 622.386719 334.339844 598.128906 292.640625 C 582.515625 265.792969 553.503906 249.117188 522.421875 249.117188 "/>
<path style=" stroke:none;fill-rule:nonzero;fill:rgb(54.899597%,32.159424%,100%);fill-opacity:1;" d="M 492.480469 484.140625 L 473.125 484.140625 L 473.125 329.289062 L 492.480469 329.289062 L 492.480469 484.140625 "/>
<path style=" stroke:none;fill-rule:nonzero;fill:rgb(36.859131%,9.01947%,92.158508%);fill-opacity:1;" d="M 336.839844 409.941406 L 317.492188 409.941406 L 317.492188 329.289062 L 336.839844 329.289062 L 336.839844 409.941406 "/>
<path style=" stroke:none;fill-rule:nonzero;fill:rgb(54.899597%,32.159424%,100%);fill-opacity:1;" d="M 353.625 296.28125 L 404.984375 326.15625 L 404.984375 303.765625 L 353.625 273.890625 L 353.625 296.28125 "/>
<path style=" stroke:none;fill-rule:nonzero;fill:rgb(36.859131%,9.01947%,92.158508%);fill-opacity:1;" d="M 460.367188 404.984375 C 460.367188 435.570312 435.570312 460.367188 404.984375 460.367188 C 374.394531 460.367188 349.601562 435.570312 349.601562 404.984375 C 349.601562 374.398438 374.394531 349.601562 404.984375 349.601562 C 435.570312 349.601562 460.367188 374.398438 460.367188 404.984375 "/>
<path style=" stroke:none;fill-rule:nonzero;fill:rgb(54.899597%,32.159424%,100%);fill-opacity:1;" d="M 404.984375 349.601562 C 404.734375 349.601562 404.488281 349.640625 404.238281 349.644531 L 404.238281 460.332031 C 404.488281 460.332031 404.734375 460.367188 404.984375 460.367188 C 435.570312 460.367188 460.367188 435.570312 460.367188 404.984375 C 460.367188 374.398438 435.570312 349.601562 404.984375 349.601562 "/>
</g>
</svg>
